<?xml version="1.0" standalone="no"?><!DOCTYPE svg PUBLIC "-//W3C//DTD SVG 1.1//EN" "http://www.w3.org/Graphics/SVG/1.1/DTD/svg11.dtd"><svg t="1562056176107" class="icon" viewBox="0 0 1024 1024" version="1.1" xmlns="http://www.w3.org/2000/svg" p-id="2829" xmlns:xlink="http://www.w3.org/1999/xlink" width="81" height="81"><defs><style type="text/css"></style></defs><path d="M345.403077 698.171077c-5.041231 0-8.782769-0.905846-10.515692-2.638769C324.568615 685.213538 339.574154 630.153846 387.584 548.312615l2.796308-4.726154L851.377231 78.729846l93.341538 93.341538-464.344615 468.046769C432.758154 668.987077 373.563077 698.171077 345.403077 698.171077z" p-id="2830" fill="#ffffff"></path><path d="M866.697846 64l57.777231-57.737846c3.544615-3.584 8.349538-5.553231 13.430154-5.553231s9.806769 1.969231 13.390769 5.553231l66.481231 66.441846c3.623385 3.623385 5.592615 8.388923 5.592615 13.469538 0 5.080615-1.969231 9.846154-5.553231 13.430154l-57.777231 57.737846L866.697846 64z" p-id="2831" fill="#ffffff"></path><path d="M91.923692 1022.976c-50.136615 0-90.939077-40.802462-90.939077-90.939077L0.984615 155.136c0-50.136615 40.763077-91.017846 90.939077-91.017846L685.292308 64.118154l-66.048 66.048L91.923692 130.166154c-13.784615 0-24.969846 11.185231-24.969846 24.930462l0 776.900923c0 13.745231 11.185231 24.930462 24.969846 24.930462l776.940308 0c13.745231 0 24.969846-11.185231 24.969846-24.930462l0-527.36 65.929846-65.929846 0 593.289846c0 50.097231-40.723692 90.939077-90.899692 90.939077L91.923692 1022.936615z" p-id="2832" fill="#ffffff"></path></svg>